<svg width="92" height="92" viewBox="0 0 92 92" fill="none" xmlns="http://www.w3.org/2000/svg">
<g clip-path="url(#clip0_976_1808)">
<path d="M80.3899 65.564H7.19803C4.64588 65.564 2.58594 63.5094 2.58594 60.964V7.18159C2.58594 4.63611 4.64588 2.58154 7.19803 2.58154H80.3899C82.942 2.58154 85.002 4.63611 85.002 7.18159V60.964C85.002 63.4912 82.942 65.564 80.3899 65.564Z" fill="white"/>
<path d="M82.5586 67.3822H5.0281C2.65825 67.3822 0.744141 65.473 0.744141 63.1094V5.01789C0.744141 2.65423 2.65825 0.745117 5.0281 0.745117H82.5586C84.9285 0.745117 86.8426 2.65423 86.8426 5.01789V63.1094C86.8426 65.473 84.9285 67.3822 82.5586 67.3822ZM5.0281 4.41788C4.69997 4.41788 4.42652 4.69061 4.42652 5.01789V63.1094C4.42652 63.4367 4.69997 63.7094 5.0281 63.7094H82.5586C82.8868 63.7094 83.1602 63.4367 83.1602 63.1094V5.01789C83.1602 4.69061 82.8868 4.41788 82.5586 4.41788H5.0281Z" fill="#00553A"/>
<path d="M83.1594 41.4363V63.1093C83.1594 63.4366 82.886 63.7093 82.5579 63.7093H5.02736C4.69923 63.7093 4.42578 63.4366 4.42578 63.1093V27.8726C11.8635 44.6727 28.7258 56.4001 48.3227 56.4001C62.0496 56.4001 74.4275 50.6546 83.1594 41.4363Z" fill="#F3F3F3"/>
<path d="M83.0696 20.0181H4.44531V30.3818H83.0696V20.0181Z" fill="#E1E1E1"/>
<path d="M24.8623 45.8183H14.4714C13.5599 45.8183 12.8125 45.0729 12.8125 44.1638V42.9456C12.8125 42.0365 13.5599 41.291 14.4714 41.291H24.8623C25.7738 41.291 26.5212 42.0365 26.5212 42.9456V44.1638C26.5212 45.0729 25.7738 45.8183 24.8623 45.8183Z" fill="#A8A6A7"/>
<path d="M41.2334 45.8183H30.8425C29.931 45.8183 29.1836 45.0729 29.1836 44.1638V42.9456C29.1836 42.0365 29.931 41.291 30.8425 41.291H41.2334C42.1448 41.291 42.8923 42.0365 42.8923 42.9456V44.1638C42.8923 45.0729 42.1448 45.8183 41.2334 45.8183Z" fill="#A8A6A7"/>
<path d="M58.0224 45.8183H47.6316C46.7201 45.8183 45.9727 45.0729 45.9727 44.1638V42.9456C45.9727 42.0365 46.7201 41.291 47.6316 41.291H58.0224C58.9339 41.291 59.6813 42.0365 59.6813 42.9456V44.1638C59.6995 45.0729 58.9521 45.8183 58.0224 45.8183Z" fill="#A8A6A7"/>
<path d="M74.8115 45.8183H64.4206C63.5091 45.8183 62.7617 45.0729 62.7617 44.1638V42.9456C62.7617 42.0365 63.5091 41.291 64.4206 41.291H74.8115C75.723 41.291 76.4704 42.0365 76.4704 42.9456V44.1638C76.4704 45.0729 75.723 45.8183 74.8115 45.8183Z" fill="#A8A6A7"/>
<path d="M70.091 79.8186C80.763 79.8186 89.4143 71.1898 89.4143 60.5456C89.4143 49.9015 80.763 41.2727 70.091 41.2727C59.419 41.2727 50.7676 49.9015 50.7676 60.5456C50.7676 71.1898 59.419 79.8186 70.091 79.8186Z" fill="#F4AD3D"/>
<path d="M70.0904 81.6368C64.4392 81.6368 59.1344 79.4368 55.1238 75.4549C51.1316 71.4731 48.9258 66.1639 48.9258 60.5275C48.9258 54.8911 51.1316 49.6001 55.1238 45.6001C59.1161 41.6182 64.4392 39.4182 70.0904 39.4182C75.7415 39.4182 81.0464 41.6182 85.0569 45.6001C89.0492 49.582 91.2549 54.8911 91.2549 60.5275C91.2549 66.1639 89.0492 71.4549 85.0569 75.4549C81.0646 79.455 75.7415 81.6368 70.0904 81.6368ZM70.0904 43.091C60.4469 43.091 52.6082 50.9092 52.6082 60.5275C52.6082 70.1458 60.4469 77.9641 70.0904 77.9641C79.7338 77.9641 87.5726 70.1458 87.5726 60.5275C87.5726 50.9092 79.7338 43.091 70.0904 43.091Z" fill="#00553A"/>
<path d="M67.1363 70.1094C66.6441 70.1094 66.1883 69.9094 65.842 69.5821L59.6074 63.3638C58.8965 62.6547 58.8965 61.4911 59.6074 60.782C60.3184 60.0729 61.4851 60.0729 62.196 60.782L66.9722 65.5457L77.8553 51.7092C78.4751 50.9092 79.6418 50.7819 80.4257 51.4001C81.2278 52.0183 81.3554 53.1819 80.7356 53.9638L68.5764 69.4366C68.2483 69.8548 67.7743 70.1094 67.2456 70.1276C67.2092 70.1094 67.1727 70.1094 67.1363 70.1094Z" fill="white"/>
<path d="M89.4138 83.964L84.0725 83.3276C83.2886 83.2367 82.523 83.6731 82.2131 84.4003L80.1167 89.3095L74.8301 80.1639C78.4213 79.5457 81.8485 78.1276 84.8381 76.0366L89.4138 83.964Z" fill="#F4AD3D"/>
<path d="M80.1161 91.146C79.4599 91.146 78.8583 90.8005 78.5302 90.2369L73.2436 81.0913C72.9519 80.5822 72.9155 79.9458 73.1707 79.4004C73.4259 78.8549 73.9363 78.4731 74.5197 78.3822C77.8375 77.8004 81.0276 76.4913 83.7803 74.5458C84.1996 74.2549 84.7282 74.1458 85.2387 74.2549C85.7491 74.364 86.1684 74.6731 86.4236 75.1276L91.0175 83.0368C91.3638 83.6368 91.3456 84.3823 90.9628 84.9641C90.5799 85.5459 89.9054 85.855 89.2127 85.7823L83.9079 85.1459L81.8115 90.0369C81.5381 90.6732 80.9365 91.1096 80.2438 91.146C80.1891 91.146 80.1526 91.146 80.1161 91.146ZM77.6552 81.4186L79.8609 85.2368L80.5172 83.6913C81.1552 82.2186 82.6865 81.3277 84.2725 81.5277L85.9679 81.7277L84.1814 78.6367C82.1579 79.8368 79.9521 80.7822 77.6552 81.4186Z" fill="#00553A"/>
<path d="M67.0277 79.9641L61.5588 89.437L59.4624 84.5278C59.1525 83.8005 58.3869 83.3642 57.603 83.4551L52.2617 84.0914L57.3842 75.2368C60.2098 77.4914 63.5094 79.1096 67.0277 79.9641Z" fill="#F4AD3D"/>
<path d="M61.5582 91.2551C61.5218 91.2551 61.4853 91.2551 61.4489 91.2551C60.7561 91.2187 60.1363 90.7824 59.8629 90.146L57.7665 85.2732L52.4617 85.9096C51.7689 85.9823 51.0945 85.6732 50.7116 85.0914C50.3288 84.5096 50.3106 83.7641 50.6569 83.1641L55.7795 74.3095C56.0529 73.8549 56.5086 73.5276 57.0373 73.4185C57.566 73.3276 58.1129 73.4549 58.5321 73.8004C61.1207 75.8913 64.2198 77.4004 67.4464 78.1822C68.0115 78.3095 68.4673 78.7095 68.7043 79.2368C68.923 79.7641 68.9048 80.3641 68.6131 80.8732L63.1442 90.346C62.8161 90.9096 62.2145 91.2551 61.5582 91.2551ZM57.8029 81.6186C59.2431 81.6186 60.5738 82.4732 61.139 83.8187L61.7952 85.3641L64.2745 81.0732C62.0322 80.3095 59.8994 79.2368 57.9488 77.9277L55.6701 81.8368L57.3837 81.6368C57.5113 81.6186 57.6571 81.6186 57.8029 81.6186Z" fill="#00553A"/>
</g>
<defs>
<clipPath id="clip0_976_1808">
<rect width="90.51" height="90.51" fill="white" transform="translate(0.744141 0.745117)"/>
</clipPath>
</defs>
</svg>
