<svg width="92" height="92" viewBox="0 0 92 92" fill="none" xmlns="http://www.w3.org/2000/svg">
<g clip-path="url(#clip0_1155_1738)">
<path d="M15.9396 88.0005L2.71284 65.7256C1.95393 64.46 2.36952 62.8147 3.65245 62.0553L13.8255 55.9985C15.0903 55.2391 16.7347 55.6549 17.4936 56.9386L30.7203 79.2135C31.4792 80.4791 31.0636 82.1244 29.7807 82.8838L19.6077 88.9406C18.3428 89.7 16.6985 89.2842 15.9396 88.0005Z" fill="white"/>
<path d="M18.2711 91.0739C16.7533 91.0739 15.2535 90.2965 14.4223 88.8862L1.19557 66.6475C-0.0692839 64.5322 0.635421 61.7659 2.74953 60.5184L12.8864 54.4796C13.9164 53.8648 15.109 53.7021 16.2654 53.9914C17.4218 54.2807 18.3976 55.022 19.0119 56.0345L32.2387 78.2731C32.8531 79.3037 33.0157 80.497 32.7266 81.6541C32.4375 82.8113 31.6966 83.7876 30.6847 84.4023L20.5478 90.4411C19.8251 90.875 19.0481 91.0739 18.2711 91.0739ZM17.458 87.0782C17.711 87.5121 18.2892 87.6568 18.7228 87.4036L28.8597 81.3648C29.0766 81.2383 29.2211 81.0394 29.2753 80.8044C29.3295 80.5693 29.2934 80.3162 29.1669 80.0992L15.9402 57.8606C15.8137 57.6436 15.6149 57.499 15.38 57.4447C15.1451 57.3905 14.8921 57.4266 14.6753 57.5532L4.5384 63.592C4.10473 63.8451 3.96018 64.4237 4.21315 64.8576L17.458 87.0782Z" fill="#00583C"/>
<path d="M60.3176 39.943H30.8284C29.8707 39.943 29.0938 39.1656 29.0938 38.2073V33.8138C29.0938 32.8556 29.8707 32.0781 30.8284 32.0781H60.3176C61.2753 32.0781 62.0522 32.8556 62.0522 33.8138V38.2073C62.0703 39.1656 61.2753 39.943 60.3176 39.943Z" fill="#E1E1E1"/>
<path d="M61.1681 41.715H29.9985C28.5168 41.715 27.3242 40.5217 27.3242 39.0392V32.9642C27.3242 31.4816 28.5168 30.2883 29.9985 30.2883H61.1681C62.6498 30.2883 63.8424 31.4816 63.8424 32.9642V39.0392C63.8424 40.5217 62.6317 41.715 61.1681 41.715ZM30.8658 38.1713H60.2827V33.8321H30.8658V38.1713Z" fill="#00583C"/>
<path d="M63.5891 47.8261H34.0999C33.1422 47.8261 32.3652 47.0486 32.3652 46.0904V41.6969C32.3652 40.7386 33.1422 39.9612 34.0999 39.9612H63.5891C64.5467 39.9612 65.3237 40.7386 65.3237 41.6969V46.0904C65.3237 47.0486 64.5467 47.8261 63.5891 47.8261Z" fill="white"/>
<path d="M64.4201 49.5981H33.2504C31.7687 49.5981 30.5762 48.4048 30.5762 46.9222V40.8473C30.5762 39.3647 31.7687 38.1714 33.2504 38.1714H64.4201C65.9017 38.1714 67.0943 39.3647 67.0943 40.8473V46.9222C67.0943 48.4048 65.9017 49.5981 64.4201 49.5981ZM34.1358 46.0544H63.5527V41.7151H34.1358V46.0544Z" fill="#00583C"/>
<path d="M67.1848 55.7092H37.6956C36.7379 55.7092 35.9609 54.9317 35.9609 53.9734V49.5619C35.9609 48.6036 36.7379 47.8262 37.6956 47.8262H67.1848C68.1424 47.8262 68.9194 48.6036 68.9194 49.5619V53.9554C68.9194 54.9317 68.1424 55.7092 67.1848 55.7092Z" fill="#E1E1E1"/>
<path d="M68.0333 57.4809H36.8637C35.382 57.4809 34.1895 56.2876 34.1895 54.805V48.7301C34.1895 47.2475 35.382 46.0542 36.8637 46.0542H68.0333C69.515 46.0542 70.7076 47.2475 70.7076 48.7301V54.805C70.7076 56.2876 69.497 57.4809 68.0333 57.4809ZM37.731 53.9372H67.1479V49.5979H37.731V53.9372Z" fill="#00583C"/>
<path d="M88.8499 58.6922C88.8499 58.7465 88.8499 58.8188 88.8499 58.873C88.7776 60.5545 87.6573 62.019 86.0672 62.5795L74.3583 67.6058C70.6721 69.0522 67.7629 70.4444 64.0949 72.397C62.1795 73.4095 60.8785 73.7169 57.9151 74.2051C57.4634 74.2774 54.9879 74.4944 54.5362 74.5486L29.727 77.4776L27.7935 74.2231L18.2168 58.2402L30.3594 51.9845C33.2505 50.4838 36.6114 50.1041 39.7735 50.8997L57.0478 55.2389C59.0354 55.7452 60.4268 57.517 60.4268 59.5601C60.4268 60.7895 59.9208 61.9105 59.1258 62.706C58.3127 63.5197 57.2104 64.0078 55.9817 64.0078C58.3127 64.0078 60.3545 62.3987 60.8785 60.1206C61.1134 59.0719 61.2038 58.1498 61.5652 57.7701L71.2684 56.5226C77.0867 55.3112 77.7553 55.2028 82.9231 54.0275C84.3325 53.7021 85.8504 53.9914 87.0429 54.9677C88.2536 55.8898 88.8499 57.282 88.8499 58.6922Z" fill="white"/>
<path d="M29.7448 79.2134C29.1304 79.2134 28.5522 78.8879 28.2269 78.3455L26.2935 75.0911L16.7348 59.1263C16.4819 58.7104 16.4096 58.2042 16.5541 57.7341C16.6806 57.264 17.0059 56.8662 17.4395 56.6493L29.5821 50.3935C32.8708 48.694 36.6473 48.2601 40.225 49.1641L57.4993 53.5033C59.0352 53.883 60.3 54.8051 61.1493 56.0526C61.2216 56.0345 61.2758 56.0165 61.3481 56.0165L70.9971 54.7689C71.7921 54.6062 72.4968 54.4616 73.1112 54.335C77.0684 53.5214 78.1345 53.3044 82.5434 52.31C84.5491 51.858 86.5909 52.3281 88.163 53.5937C89.7169 54.8413 90.6204 56.7216 90.6204 58.7285C90.6204 58.8189 90.6204 58.8912 90.6204 58.9816C90.53 61.3321 88.958 63.4474 86.7174 64.261L75.0627 69.2512C75.0446 69.2512 75.0266 69.2693 75.0085 69.2693C71.6657 70.5891 68.8468 71.909 64.9258 73.9701C62.7575 75.1273 61.2035 75.4527 58.204 75.9589C57.8787 76.0132 57.0475 76.0855 55.8188 76.2121C55.3671 76.2482 54.8792 76.3025 54.7347 76.3206L29.9255 79.2495C29.8893 79.2134 29.817 79.2134 29.7448 79.2134ZM20.7282 58.9274L29.3292 73.2831L30.6844 75.5431L54.3552 72.7587C54.5359 72.7407 54.9154 72.7045 55.5117 72.6503C56.1802 72.596 57.4089 72.4695 57.6438 72.4333C60.553 71.9451 61.6372 71.692 63.2815 70.8061C66.6424 69.0342 69.6961 67.5336 73.6894 65.9425L85.3803 60.9343C85.4164 60.9162 85.4526 60.8981 85.4887 60.8981C86.4102 60.5727 87.0427 59.741 87.0788 58.8008C87.0788 58.7647 87.0788 58.7285 87.0788 58.6923C87.0788 57.7703 86.6632 56.9024 85.9404 56.3238C85.2177 55.7453 84.26 55.5283 83.3204 55.7453C78.8753 56.7578 77.7008 56.9928 73.8159 57.7883C73.1654 57.9149 72.4607 58.0776 71.6295 58.2403C71.5934 58.2584 71.5392 58.2584 71.503 58.2584L62.8297 59.3794C62.8117 59.4879 62.7936 59.5783 62.7755 59.6687C62.7213 59.9218 62.6671 60.2111 62.5948 60.5004C61.8721 63.5921 59.1617 65.7617 55.9815 65.7617C55.0057 65.7617 54.1926 64.9662 54.1926 63.9898C54.1926 63.0135 54.9876 62.218 55.9634 62.218C56.6862 62.218 57.3547 61.9468 57.8607 61.4225C58.3666 60.9162 58.6376 60.2472 58.6376 59.524C58.6376 58.2946 57.8065 57.2098 56.6139 56.9205L39.3396 52.5812C36.5931 51.8942 33.702 52.2196 31.1722 53.5214L20.7282 58.9274Z" fill="#00583C"/>
<path d="M55.9809 65.7616C55.8725 65.7616 55.764 65.7435 55.6556 65.7254L40.4412 62.8868C39.4836 62.706 38.8511 61.7839 39.0138 60.8076C39.1944 59.8493 40.116 59.2165 41.0917 59.3792L56.3061 62.2178C57.2638 62.3986 57.8962 63.3207 57.7336 64.2971C57.571 65.1649 56.8301 65.7616 55.9809 65.7616Z" fill="#005738"/>
<path d="M87.0787 58.6744C87.0787 58.7105 87.0787 58.7467 87.0787 58.7828C87.0425 59.7049 86.4101 60.5547 85.5066 60.8801L85.4524 60.8982L73.6893 65.8703C69.6959 67.4433 66.8771 68.8897 63.5162 70.6615C61.8719 71.5294 60.5529 71.8548 57.6437 72.343C57.4088 72.3792 56.1801 72.4876 55.5115 72.56C54.9152 72.6142 54.5358 72.6504 54.3551 72.6684L30.7023 75.5251L29.329 73.1928L20.7461 58.8913L28.7147 54.7871C36.4664 62.652 47.1996 67.4975 59.1254 67.4975C69.6779 67.4975 79.345 63.6645 86.8076 57.3183C86.9702 57.7523 87.0787 58.2224 87.0787 58.6744Z" fill="#F4F4F4"/>
<path d="M71.3036 37.9906C81.0436 37.9906 88.9393 30.0901 88.9393 20.3443C88.9393 10.5985 81.0436 2.698 71.3036 2.698C61.5637 2.698 53.668 10.5985 53.668 20.3443C53.668 30.0901 61.5637 37.9906 71.3036 37.9906Z" fill="#F4AD3D"/>
<path d="M71.3049 39.7623C60.6079 39.7623 51.8984 31.0477 51.8984 20.3442C51.8984 9.64069 60.6079 0.926025 71.3049 0.926025C82.002 0.926025 90.7114 9.64069 90.7114 20.3442C90.7114 31.0477 82.002 39.7623 71.3049 39.7623ZM71.3049 4.46975C62.5593 4.46975 55.4581 11.5934 55.4581 20.3442C55.4581 29.095 62.5774 36.2005 71.3049 36.2005C80.0324 36.2005 87.1698 29.0769 87.1698 20.3442C87.1698 11.6114 80.0505 4.46975 71.3049 4.46975Z" fill="#00583C"/>
<path d="M75.1121 13.8636C75.3534 13.8636 75.5376 13.9705 75.6646 14.1842C75.7916 14.3853 75.798 14.5927 75.6837 14.8064L69.4543 26.6859C69.1241 27.3144 68.597 27.6287 67.8731 27.6287H67.7969C67.5556 27.6287 67.3715 27.5281 67.2445 27.327C67.1175 27.1133 67.1111 26.8996 67.2254 26.6859L73.4548 14.8064C73.785 14.1779 74.312 13.8636 75.0359 13.8636H75.1121ZM74.4454 24.0837C74.4454 25.4162 74.8454 26.0825 75.6456 26.0825C76.4457 26.0825 76.8457 25.4162 76.8457 24.0837C76.8457 22.7386 76.4457 22.0661 75.6456 22.0661C74.8454 22.0661 74.4454 22.7386 74.4454 24.0837ZM73.0738 21.3118C73.6834 20.6581 74.5406 20.3313 75.6456 20.3313C76.7505 20.3313 77.6077 20.6581 78.2173 21.3118C78.8269 21.9655 79.1317 22.8895 79.1317 24.0837C79.1317 25.2779 78.8269 26.2019 78.2173 26.8556C77.6077 27.4967 76.7505 27.8172 75.6456 27.8172C74.5406 27.8172 73.6834 27.4967 73.0738 26.8556C72.4642 26.2019 72.1594 25.2779 72.1594 24.0837C72.1594 22.8895 72.4642 21.9655 73.0738 21.3118ZM68.4637 17.4086C68.4637 16.0761 68.0636 15.4098 67.2635 15.4098C66.4634 15.4098 66.0634 16.0761 66.0634 17.4086C66.0634 18.7537 66.4634 19.4262 67.2635 19.4262C68.0636 19.4262 68.4637 18.7537 68.4637 17.4086ZM69.8353 20.1805C69.2257 20.8341 68.3684 21.161 67.2635 21.161C66.1586 21.161 65.3014 20.8341 64.6917 20.1805C64.0821 19.5268 63.7773 18.6028 63.7773 17.4086C63.7773 16.2144 64.0821 15.2967 64.6917 14.6556C65.3014 14.0019 66.1586 13.675 67.2635 13.675C68.3684 13.675 69.2257 14.0019 69.8353 14.6556C70.4449 15.2967 70.7497 16.2144 70.7497 17.4086C70.7497 18.6028 70.4449 19.5268 69.8353 20.1805Z" fill="white"/>
</g>
<defs>
<clipPath id="clip0_1155_1738">
<rect width="90.51" height="90.51" fill="white" transform="translate(0.744141 0.745117)"/>
</clipPath>
</defs>
</svg>
