<svg width="92" height="92" viewBox="0 0 92 92" fill="none" xmlns="http://www.w3.org/2000/svg">
<path d="M80.4246 8.82253C74.6688 22.9948 71.7727 36.7146 69.4921 51.9367C61.6005 51.3575 57.9806 50.905 50.1795 49.5837C51.5732 34.2349 52.0076 20.2255 49.7812 5.07583C63.0123 1.74543 68.3519 2.39703 80.4246 8.82253Z" fill="#F4F4F4"/>
<path d="M71.031 53.8735L69.3477 53.7468C61.3656 53.1495 57.7275 52.7151 49.8721 51.3576L48.225 51.068L48.3698 49.4028C49.5825 36.0812 50.3608 21.5288 47.9716 5.32928L47.7363 3.70028L49.3291 3.30208C55.4831 1.76358 60.6235 0.858576 65.7458 1.49208C70.8681 2.12558 75.6465 4.22518 81.2575 7.21168L82.7055 7.97188L82.0901 9.49228C75.9361 24.642 73.2573 38.9772 71.2663 52.2083L71.031 53.8735ZM52.1346 48.0634C58.2343 49.077 61.7819 49.5114 67.954 50.0001C69.8726 37.4568 72.5152 23.9542 78.1443 9.65518C67.9721 4.42428 62.9222 3.79078 51.8088 6.43338C53.8722 21.6736 53.2387 35.4296 52.1346 48.0634Z" fill="#00583C"/>
<path d="M66.1265 45.1131C62.1445 44.6787 60.2078 44.4434 56.2258 43.9004C56.3887 42.4162 55.5199 41.0949 54.2891 40.9501C55.1036 30.5064 55.357 21.0039 54.6692 10.5602C56.4792 10.0534 57.9091 8.64159 57.8186 7.21169C64.1355 5.98089 67.3935 6.37909 73.2398 9.09409C72.8235 10.4697 73.8733 12.1711 75.5023 13.1123C72.371 23.0854 70.3619 32.3707 68.6786 42.7058C67.484 42.561 66.3256 43.6289 66.1265 45.1131Z" fill="#F4AD3D"/>
<path d="M88.4432 23.4655C78.9407 34.9228 72.2618 46.9593 65.7096 60.6791C58.4696 57.2763 55.2116 55.5568 48.2793 51.4662C54.017 37.3301 58.4877 24.1171 60.7864 8.8407C74.1442 10.4335 78.9769 13.0037 88.4432 23.4655Z" fill="#F4F4F4"/>
<path d="M66.5602 63.0864L64.9312 62.3262C57.6188 58.8872 54.3427 57.1496 47.338 53.0409L45.9805 52.2445L46.5778 50.7965C51.5734 38.5247 56.5147 24.8954 58.9763 8.58733L59.2297 6.84973L60.9673 7.06693C67.1937 7.80903 72.2798 8.80453 76.8953 11.248C81.5108 13.6915 85.3661 17.4201 89.7644 22.2709L90.8142 23.4293L89.8187 24.642C79.6646 36.8776 73.0038 49.5838 67.3204 61.4936L66.5602 63.0864ZM50.5417 50.706C56.026 53.9097 59.2116 55.593 64.8588 58.2899C70.2888 47.0498 76.66 35.14 86.0539 23.5379C77.9994 14.8137 73.4201 12.3702 62.2886 10.8679C59.8089 26.1443 55.2296 39.0315 50.5417 50.706Z" fill="#00583C"/>
<path d="M64.5887 51.1584C61.2583 49.457 59.6474 48.6063 56.3713 46.8144C56.8962 45.5655 56.5161 44.1175 55.4844 43.5745C58.9777 34.6693 61.7108 26.3976 63.9009 17.0218C65.6023 17.1666 67.2132 16.4064 67.5209 15.1213C73.3129 16.1349 76.0098 17.5648 80.3357 21.8907C79.6117 22.9586 80.0642 24.8048 81.2226 26.1623C75.865 33.8729 71.6658 41.3663 67.4485 49.8914C66.4349 49.3665 65.1498 49.9276 64.5887 51.1584Z" fill="#F4AD3D"/>
<path d="M73.6923 20.7686C74.6154 21.2573 75.0317 22.3071 74.6878 23.0492C74.3258 23.7913 73.3484 23.9904 72.4796 23.5198C71.6108 23.0673 71.1402 22.108 71.4479 21.3297C71.7556 20.5695 72.7692 20.2799 73.6923 20.7686Z" fill="white"/>
<path d="M69.7457 33.2576L69.619 33.8187L69.4018 34.2531C69.3113 34.3798 69.2208 34.4703 69.1122 34.5608C68.9674 34.6875 68.7864 34.7961 68.5873 34.8866C68.4244 34.959 68.2796 35.0857 68.2072 35.2848C68.1348 35.4839 68.1167 35.7011 68.2072 35.9002C68.2977 36.0993 68.4425 36.2441 68.6235 36.3346C68.8407 36.4251 69.0941 36.4251 69.3294 36.2984C69.6914 36.1355 69.9991 35.9364 70.2525 35.683C70.4154 35.5201 70.5783 35.321 70.7231 35.1038L71.067 35.2486C71.2842 35.3391 71.4833 35.3391 71.6824 35.2667C71.8815 35.1943 72.0263 35.0495 72.1168 34.8323C72.2073 34.6332 72.2073 34.416 72.1349 34.2169C72.0625 34.0178 71.8996 33.873 71.7005 33.7825L71.3023 33.6196C71.3566 33.1671 71.3023 32.7327 71.1575 32.3526C70.9584 31.8458 70.6145 31.4657 70.1077 31.2485C69.5285 30.9951 69.0036 30.977 68.5692 31.1761C68.1891 31.339 67.7909 31.6648 67.4108 32.1354L66.6868 33.0585C66.5601 33.1671 66.4515 33.2576 66.3429 33.3119C66.2343 33.3481 66.1438 33.3481 66.0171 33.2938C65.9085 33.2395 65.8361 33.1852 65.7999 33.0585C65.6913 32.7146 65.7456 32.4974 65.9085 32.1173C66.1619 31.5381 66.5963 31.3752 66.7411 31.3209L66.7954 31.3028C67.1212 31.158 67.2841 30.7055 67.1212 30.3435C67.0307 30.1444 66.904 29.9996 66.7049 29.9272C66.4877 29.8367 66.2162 29.8367 65.9809 29.9634C65.7275 30.072 65.4922 30.2349 65.275 30.434C65.1302 30.5607 64.9854 30.7236 64.8768 30.8684L64.7139 30.796C64.5148 30.7055 64.2976 30.7055 64.0985 30.7779C63.9175 30.8503 63.7727 30.977 63.6641 31.2123C63.5736 31.4114 63.5736 31.6286 63.646 31.8277C63.7184 32.0268 63.8632 32.1897 64.0804 32.2802L64.2252 32.3345C64.1347 32.8051 64.1709 33.2576 64.3157 33.6558C64.5148 34.1807 64.8768 34.5427 65.4017 34.778C65.9447 35.0133 66.4696 35.0133 66.9402 34.8142C67.3565 34.6332 67.7547 34.3074 68.1167 33.8187L68.4787 33.2757L68.8226 32.9318C68.8769 32.8956 68.9312 32.8594 69.0398 32.8051L69.0941 32.7689C69.1122 32.7508 69.1484 32.7508 69.1484 32.7508C69.257 32.7146 69.3656 32.7146 69.4923 32.7689C69.5828 32.8051 69.6552 32.8775 69.6914 32.9861C69.7276 33.0585 69.7457 33.1852 69.7457 33.2576Z" fill="white"/>
<path d="M78.8683 43.9727C78.8683 40.5699 75.9542 37.8187 72.3704 37.8187H71.936C65.7277 37.2757 60.8226 37.4748 57.3836 37.8187H56.5148V37.9092C53.3654 38.2712 51.6821 38.7237 51.6821 38.7237L51.3382 29.4565L46.7951 30.3434C44.2068 30.8864 41.8357 32.1353 40.0438 33.9453L30.1069 43.9365C27.6272 46.4162 24.152 47.8461 20.4958 47.8461H19.2469L14.3418 80.8967L26.7765 81.0053C44.4421 87.4851 65.7096 85.2045 65.7096 85.2045H67.5377C71.1215 85.2045 74.0356 82.4533 74.0356 79.0505C74.0356 76.5708 72.4971 74.4531 70.2708 73.4757H70.7233C74.3071 73.4757 77.2212 70.7245 77.2212 67.3217C77.2212 64.9506 75.4112 62.851 73.3116 61.8193C73.2573 61.7831 73.1849 61.765 73.1306 61.7288C76.1714 61.222 78.8864 58.7604 78.8864 55.7196C78.8864 52.9684 76.9678 50.6335 74.3252 49.8552C76.9497 49.0769 78.8683 46.742 78.8683 43.9727Z" fill="white"/>
<path d="M4.98527 42.0361H20.1531C21.2934 42.0361 22.2165 42.9592 22.2165 44.0995V86.8336C22.2165 87.9739 21.2934 88.897 20.1531 88.897H4.98527C3.84497 88.897 2.92188 87.9739 2.92188 86.8336V44.0995C2.92188 42.9592 3.84497 42.0361 4.98527 42.0361Z" fill="white"/>
<path d="M73.1683 71.9011C66.6161 75.7383 56.8964 75.684 48.8781 75.684C34.5067 75.684 12.9677 62.1271 4.58743 51.1404C4.56933 58.8872 4.09873 79.9194 3.51953 88.2997C6.19833 88.9332 17.9452 89.2228 22.7055 88.897C25.1671 88.7341 21.2756 79.847 23.4114 79.7927C25.0766 79.7384 23.1761 79.6298 24.9499 79.7927C31.1401 80.3538 38.8688 84.0462 42.6879 84.6797H71.485C71.9556 84.6797 72.39 84.4806 72.7158 84.1005C73.0416 83.7204 73.1864 83.2317 73.1321 82.7249C72.8244 79.4669 74.2724 74.9238 73.1683 71.9011Z" fill="#F3F3F3"/>
<path d="M20.1706 90.7251H4.98473C2.84893 90.7251 1.11133 88.9875 1.11133 86.8336V44.0995C1.11133 41.9637 2.84893 40.2261 4.98473 40.2261H20.1525C22.2883 40.2261 24.0259 41.9637 24.0259 44.0995V86.8336C24.044 88.9875 22.3064 90.7251 20.1706 90.7251ZM4.98473 43.8461C4.83993 43.8461 4.73133 43.9547 4.73133 44.0995V86.8336C4.73133 86.9784 4.83993 87.087 4.98473 87.087H20.1525C20.2973 87.087 20.4059 86.9784 20.4059 86.8336V44.0995C20.4059 43.9547 20.2973 43.8461 20.1525 43.8461H4.98473Z" fill="#00583C"/>
<path d="M10.5051 82.2181C12.0246 82.2181 13.2563 80.9863 13.2563 79.4669C13.2563 77.9474 12.0246 76.7157 10.5051 76.7157C8.98566 76.7157 7.75391 77.9474 7.75391 79.4669C7.75391 80.9863 8.98566 82.2181 10.5051 82.2181Z" fill="#A7A5A6"/>
<path d="M61.2752 87.1413C53.1302 87.1413 35.6818 86.5078 22.1973 81.5665L23.4824 78.037C40.5869 84.2996 65.3839 83.3222 65.6192 83.3041H65.6916H67.5197C70.0537 83.3041 72.1352 81.3855 72.1352 79.0325C72.1352 77.4035 71.1578 75.9374 69.565 75.2134C68.8048 74.8695 68.3342 74.1093 68.3523 73.2767C68.3885 72.1726 69.2754 71.2857 70.3795 71.2676C72.7325 71.2133 75.2846 69.6929 75.2846 67.3037C75.2846 65.6023 75.1217 64.4801 72.7868 63.4484C72.0085 63.1045 71.5379 62.3081 71.6284 61.4755C71.7189 60.6429 72.3524 59.937 73.1669 59.7741C75.357 59.3216 76.9498 57.6202 76.9498 55.7016C76.9498 53.9097 75.5923 52.2445 73.6556 51.6472C72.9678 51.43 72.2076 50.7241 72.3343 49.4571L72.461 48.1539L73.728 47.8281C75.7733 47.3032 76.9498 45.8914 76.9498 43.9728C76.9498 41.6198 74.8864 39.7012 72.3343 39.7012H71.737C66.6871 39.2668 61.9087 39.2668 57.5466 39.7012L56.6959 39.7917C53.7818 40.1175 52.1709 40.5519 52.1528 40.5519L49.8722 41.1673L49.7817 38.8143L49.5102 31.7372L47.121 32.2078C44.8766 32.6784 42.8856 33.7463 41.329 35.3029L31.2654 45.4389C28.8038 47.9186 27.1567 49.5657 22.7946 49.5657V45.8009C25.6001 45.8009 26.2879 45.095 28.5866 42.7782L38.6502 32.6422C40.7136 30.5607 43.3924 29.1308 46.3608 28.5154H46.3789L53.094 27.1941L53.4379 36.4432C54.1981 36.3165 55.1393 36.1717 56.2615 36.045L57.1484 35.9545C61.7458 35.502 66.7233 35.502 71.9723 35.9364H72.3343C76.9498 35.9364 80.6965 39.5383 80.6965 43.9728C80.6965 46.3801 79.701 48.4435 77.9453 49.8553C79.6467 51.3576 80.6965 53.4753 80.6965 55.7197C80.6965 58.2356 79.3571 60.5705 77.2575 62.0366C78.7598 63.6475 79.0313 65.548 79.0313 67.3037C79.0313 69.4395 78.0539 71.4305 76.2982 72.8966C75.6647 73.4215 74.9407 73.874 74.1624 74.1998C75.2484 75.5754 75.8638 77.2587 75.8638 79.0325C75.8638 83.467 72.1171 87.0689 67.5016 87.0689H65.7097C65.402 87.087 63.7911 87.1413 61.2752 87.1413Z" fill="#00583C"/>
</svg>
