<svg width="92" height="92" viewBox="0 0 92 92" fill="none" xmlns="http://www.w3.org/2000/svg">
<g clip-path="url(#clip0_1029_2651)">
<path d="M60.0285 19.2271H56.933L59.069 12.7647L40.243 9.36154L37.763 15.1361L34.7943 16.0412L32.6582 6.64624L10.6281 9.36154L11.2617 18.4668L9.59628 19.2271L3.83984 25.418V74.1124H65.7487V25.418L60.0285 19.2271Z" fill="white"/>
<path d="M31.9885 4.81796C32.8755 4.51022 33.8349 4.3473 34.7943 4.3473C37.944 4.3473 40.7498 6.04889 42.1256 8.54697L46.2891 9.47017C45.0219 4.52832 40.2611 0.926025 34.7943 0.926025C31.1377 0.926025 27.6621 2.55521 25.4355 5.27051L31.9885 4.81796Z" fill="#00583C"/>
<path d="M65.676 45.3665V72.8815L4.45508 73.3884L6.01185 46.6155C8.79956 63.1064 21.4348 67.107 38.7584 67.107C53.3848 67.0708 60.4808 58.1103 65.676 45.3665Z" fill="#F4F4F4"/>
<path d="M45.7266 24.8569L57.4205 25.0198L60.2444 12.9276C60.335 12.5656 60.2625 12.2036 60.0815 11.8958C59.8824 11.5881 59.5747 11.3709 59.2307 11.2804L40.5495 6.89968C40.1874 6.80917 39.8254 6.88158 39.5177 7.0626C39.2099 7.26172 38.9927 7.56946 38.9022 7.9134L37.4902 13.9595L45.7266 24.8569Z" fill="#A7A5A6"/>
<path d="M58.8511 26.8481L44.8039 26.6489L35.5176 14.3758L37.1287 7.51512C37.3278 6.68243 37.8165 5.99455 38.5406 5.542C39.2647 5.08945 40.1155 4.94463 40.9482 5.14376L59.6475 9.50634C60.4802 9.70546 61.1862 10.2123 61.6207 10.9364C62.0551 11.6424 62.1999 12.5294 62.0189 13.344L58.8511 26.8481ZM46.6322 23.0647L55.9909 23.2096L58.3804 12.9638L40.5499 8.80036L39.4276 13.5793L46.6322 23.0647Z" fill="#00583C"/>
<path d="M33.9432 16.5299L32.7666 6.51952C32.7304 6.17558 32.5493 5.86785 32.2778 5.65063C32.0063 5.4334 31.6623 5.34289 31.3184 5.3791L9.61411 7.94958C8.90813 8.04009 8.40127 8.67366 8.47368 9.39774L10.7183 25.1284C10.7545 25.3637 18.6832 25.1284 18.6832 25.1284L33.9432 16.5299Z" fill="#A7A5A6"/>
<path d="M12.7997 26.9386C12.4919 26.9386 12.2023 26.9386 11.9489 26.9386C11.5144 26.9386 11.1886 26.9205 10.9352 26.9024C9.39648 26.7937 9.07065 25.8162 9.01634 25.3637L6.77169 9.59685C6.57257 7.94957 7.7673 6.4471 9.41458 6.24798L31.137 3.67749C31.9335 3.58698 32.73 3.80421 33.3454 4.31106C33.9609 4.79982 34.3772 5.542 34.4678 6.32039L35.7892 17.4531L19.1535 26.8119L18.7371 26.83C18.719 26.83 16.7097 26.8843 14.7366 26.9205C13.9944 26.9386 13.3427 26.9386 12.7997 26.9386ZM12.4014 24.8749V24.893C12.4014 24.8749 12.4014 24.8749 12.4014 24.8749ZM12.2204 23.4992C13.6142 23.5173 15.9856 23.463 18.2122 23.4087L32.1145 15.5886L31.1189 7.13498L10.2292 9.59685L12.2204 23.4992Z" fill="#00583C"/>
<path d="M46.2525 24.7121L43.5372 13.3984C43.4467 13.0363 43.2295 12.7467 42.9218 12.5476C42.614 12.3666 42.2339 12.2942 41.89 12.3847L19.8055 17.6886C19.0633 17.8696 18.6108 18.6118 18.7918 19.3358L20.1495 25.0018L46.2525 24.7121Z" fill="#E1E1E1"/>
<path d="M18.7018 26.83L17.0002 19.7702C16.5839 18.0686 17.6519 16.349 19.3535 15.9326L41.4379 10.6287C42.2706 10.4296 43.1214 10.5744 43.8455 11.0089C44.5696 11.4614 45.0764 12.1493 45.2756 12.982L48.5339 26.5042L18.7018 26.83ZM20.6387 19.3539L21.5619 23.1734L43.9722 22.92L41.8905 14.231L20.6387 19.3539Z" fill="#00583C"/>
<path d="M66.0018 25.1646C66.0018 25.0379 65.9656 24.9112 65.9294 24.8026V24.7845C65.9112 24.7302 65.8932 24.6577 65.8569 24.6034C65.8569 24.6034 65.8569 24.5853 65.8388 24.5853C65.8026 24.5129 65.7664 24.4586 65.7302 24.3862L61.7116 18.1048C61.3857 17.598 60.8065 17.2902 60.191 17.2902H58.5256L57.6567 20.7115H59.1773L61.0237 23.5535H56.9327H53.2579H46.2163H42.5416H23.444H19.7692H14.23H10.6277H8.56411L10.2838 20.8382L9.83125 17.254H9.3787C8.76323 17.254 8.16587 17.5618 7.85813 18.0686L3.83949 24.35V24.3681C3.80328 24.4224 3.76708 24.4767 3.74898 24.531C3.73088 24.5491 3.73088 24.5672 3.73088 24.5853C3.71277 24.6396 3.69467 24.6758 3.67657 24.7302C3.67657 24.7483 3.65847 24.7664 3.65847 24.7845C3.64037 24.8388 3.62226 24.9112 3.62226 24.9836C3.62226 25.0017 3.62226 25.0017 3.62226 25.0198C3.62226 25.056 3.60416 25.1103 3.60416 25.1465L0.925066 74.1848C0.906964 74.6555 1.08798 75.1261 1.43192 75.452C1.77586 75.7778 2.22841 75.9769 2.71716 75.9769H66.8888C67.3775 75.9769 67.8301 75.7959 68.174 75.452C68.5179 75.108 68.699 74.6555 68.6809 74.1848L66.0018 25.1646ZM4.59977 72.5737L7.07975 26.9567H62.5081L65.0061 72.5737H4.59977Z" fill="#00583C"/>
<path d="M17.3248 39.9902L16.2025 54.8338C16.0758 56.3001 17.0533 57.5853 18.3023 57.5853L51.8272 57.6758C53.0763 57.6758 54.0538 56.3725 53.927 54.8881L52.6599 39.9539C52.5513 38.6506 51.6462 37.6731 50.5601 37.6731H19.4246C18.3385 37.6731 17.4153 38.6868 17.3248 39.9902Z" fill="#E1E1E1"/>
<path d="M44.8218 29.0204C42.6133 29.0204 40.8031 30.7039 40.8031 32.7856C40.8031 34.27 41.7082 35.5371 43.0297 36.1526V40.9496C43.0297 45.2036 39.3369 48.6611 34.7932 48.6611C30.2496 48.6611 26.5568 45.2036 26.5568 40.9496V36.1526C27.8783 35.5371 28.7834 34.2519 28.7834 32.7856C28.7834 30.7039 26.9913 29.0204 24.7647 29.0204C22.5382 29.0204 20.7461 30.7039 20.7461 32.7856C20.7461 34.27 21.6512 35.5371 22.9726 36.1526V40.9496C22.9726 47.0862 28.2765 52.0823 34.7932 52.0823C41.31 52.0823 46.6139 47.0862 46.6139 40.9496V36.1526C47.9353 35.5371 48.8404 34.2519 48.8404 32.7856C48.8404 30.722 47.0302 29.0204 44.8218 29.0204ZM44.8218 31.5366C45.5639 31.5366 46.1613 32.0977 46.1613 32.7856C46.1613 32.8218 46.1613 32.858 46.1613 32.9123C45.8355 32.5684 45.3648 32.3331 44.8399 32.3331H44.7312C44.2606 32.3331 43.8261 32.5141 43.5003 32.8037V32.7856C43.4822 32.1158 44.0796 31.5366 44.8218 31.5366ZM24.7647 31.5366C25.5069 31.5366 26.1043 32.0977 26.1043 32.7856C26.1043 32.8218 26.1043 32.858 26.1043 32.9123C25.7785 32.5684 25.3078 32.3331 24.7828 32.3331C24.2579 32.3331 23.7872 32.5503 23.4614 32.9123C23.4614 32.8761 23.4614 32.8399 23.4614 32.7856C23.4252 32.1158 24.0407 31.5366 24.7647 31.5366Z" fill="#00583C"/>
<path d="M69.6398 88.775C80.2471 88.775 88.846 80.1761 88.846 69.5688C88.846 58.9615 80.2471 50.3625 69.6398 50.3625C59.0325 50.3625 50.4336 58.9615 50.4336 69.5688C50.4336 80.1761 59.0325 88.775 69.6398 88.775Z" fill="#F4AD3D"/>
<path d="M78.0031 64.2831L76.5188 70.4921C76.5007 70.5464 76.4645 70.6007 76.4102 70.6007L71.7217 70.8903C67.0152 71.1799 64.1189 71.361 63.8474 71.3791C63.7931 71.3791 63.7388 71.3247 63.7388 71.2342L63.25 64.265C63.25 64.1926 63.2681 64.1564 63.2862 64.1383C63.3043 64.1202 63.3405 64.1021 63.3586 64.1021H77.8764C77.9126 64.1021 77.9488 64.1202 77.9669 64.1564C77.985 64.1383 78.0212 64.1926 78.0031 64.2831Z" fill="white"/>
<path d="M78.9264 63.3779C78.673 63.0521 78.2929 62.8711 77.8765 62.8711H63.3587C62.9967 62.8711 62.6346 63.0159 62.3812 63.2874C62.1278 63.559 61.983 63.9572 62.0192 64.3374L62.5079 71.3066C62.5622 72.0126 63.1415 72.5738 63.8475 72.5738C63.8837 72.5738 63.9018 72.5738 71.7762 72.085L76.4646 71.7954C77.0619 71.7592 77.5507 71.3428 77.6955 70.7455L79.1799 64.5365C79.2885 64.1382 79.198 63.7038 78.9264 63.3779ZM76.3922 70.5825L71.7037 70.8722C66.9972 71.1618 64.1009 71.3428 63.8294 71.3609C63.7751 71.3609 63.7208 71.3066 63.7208 71.2161L63.232 64.2468C63.232 64.1744 63.2501 64.1382 63.2682 64.1201C63.2863 64.102 63.3225 64.0839 63.3406 64.0839H77.8584C77.8946 64.0839 77.9308 64.102 77.9489 64.1382C77.967 64.1563 78.0032 64.2106 77.9851 64.283L76.5008 70.492C76.5008 70.5463 76.4465 70.5825 76.3922 70.5825Z" fill="white"/>
<path d="M65.7836 72.9177C64.1725 72.9177 62.8691 74.2211 62.8691 75.8321C62.8691 77.4432 64.1725 78.7647 65.7836 78.7647C67.3946 78.7647 68.698 77.4432 68.698 75.8321C68.7161 74.2392 67.3946 72.9177 65.7836 72.9177ZM65.7836 77.5518C64.8423 77.5518 64.082 76.7916 64.082 75.8502C64.082 74.9089 64.8423 74.1487 65.7836 74.1487C66.7249 74.1487 67.4852 74.9089 67.4852 75.8502C67.4852 76.7916 66.7249 77.5518 65.7836 77.5518Z" fill="white"/>
<path d="M74.3109 72.9177C72.6998 72.9177 71.3965 74.2211 71.3965 75.8321C71.3965 77.4432 72.6998 78.7647 74.3109 78.7647C75.922 78.7647 77.2434 77.4432 77.2434 75.8321C77.2434 74.2392 75.922 72.9177 74.3109 72.9177ZM74.3109 77.5518C73.3696 77.5518 72.6093 76.7916 72.6093 75.8502C72.6093 74.9089 73.3696 74.1487 74.3109 74.1487C75.2522 74.1487 76.0125 74.9089 76.0125 75.8502C76.0125 76.7916 75.2522 77.5518 74.3109 77.5518Z" fill="white"/>
<path d="M76.301 74.2935H65.4579C63.9555 74.2935 62.7064 73.1712 62.5254 71.6868C62.5254 71.6687 62.5616 72.1393 61.6384 61.8936H60.7876C60.3713 61.8936 60.0273 61.5497 60.0273 61.1333C60.0273 60.717 60.3713 60.373 60.7876 60.373H62.3444C62.7426 60.373 63.0685 60.6808 63.1047 61.0609L64.046 71.5239C64.1365 72.2299 64.7339 72.7729 65.4579 72.7729H76.301C76.7174 72.7729 77.0613 73.1169 77.0613 73.5332C77.0613 73.9495 76.7174 74.2935 76.301 74.2935Z" fill="white"/>
<path d="M69.8581 91.2551C64.1922 91.2551 58.8521 89.0466 54.8516 85.0461C50.851 81.0455 48.6426 75.7054 48.6426 70.0395C48.6426 64.3736 50.851 59.0335 54.8516 55.033C58.8521 51.0324 64.1922 48.824 69.8581 48.824C75.524 48.824 80.8641 51.0324 84.8647 55.033C88.8652 59.0335 91.0737 64.3736 91.0737 70.0395C91.0737 75.7054 88.8652 81.0455 84.8647 85.0461C80.8641 89.0466 75.524 91.2551 69.8581 91.2551ZM69.8581 52.4806C65.1697 52.4806 60.7709 54.3089 57.4582 57.6215C54.1456 60.9342 52.3173 65.333 52.3173 70.0214C52.3173 74.7098 54.1456 79.1086 57.4582 82.4213C60.7709 85.734 65.1697 87.5623 69.8581 87.5623C74.5465 87.5623 78.9453 85.734 82.258 82.4213C85.5707 79.1086 87.399 74.7098 87.399 70.0214C87.399 65.333 85.5707 60.9342 82.258 57.6215C78.9634 54.3089 74.5465 52.4806 69.8581 52.4806Z" fill="#00583C"/>
</g>
<defs>
<clipPath id="clip0_1029_2651">
<rect width="90.51" height="90.51" fill="white" transform="translate(0.744141 0.744995)"/>
</clipPath>
</defs>
</svg>
