<svg width="92" height="92" viewBox="0 0 92 92" fill="none" xmlns="http://www.w3.org/2000/svg">
<g clip-path="url(#clip0_1155_1850)">
<path d="M45.9994 88.9353C69.6987 88.9353 88.9108 69.7231 88.9108 46.0238C88.9108 22.3244 69.6987 3.1123 45.9994 3.1123C22.3 3.1123 3.08789 22.3244 3.08789 46.0238C3.08789 69.7231 22.3 88.9353 45.9994 88.9353Z" fill="#F4AD3D"/>
<path fill-rule="evenodd" clip-rule="evenodd" d="M46 5.45072C23.5922 5.45072 5.42704 23.6159 5.42704 46.0237C5.42704 68.4315 23.5922 86.5966 46 86.5966C68.4078 86.5966 86.573 68.4315 86.573 46.0237C86.573 23.6159 68.4078 5.45072 46 5.45072ZM0.75 46.0237C0.75 21.0328 21.0091 0.773682 46 0.773682C70.9909 0.773682 91.25 21.0328 91.25 46.0237C91.25 71.0146 70.9909 91.2737 46 91.2737C21.0091 91.2737 0.75 71.0146 0.75 46.0237Z" fill="#00583C"/>
<path d="M53.4388 30.6446L47.9064 36.2182C47.6174 36.5072 47.1633 36.5072 46.8743 36.2182L44.4384 33.7823L41.0942 30.4794C40.8465 30.273 40.5162 30.273 40.2684 30.4794L36.9655 33.8236L27.9238 42.9479C27.6348 43.2369 27.6348 43.6911 27.9238 43.9801L30.6074 46.6637C30.8964 46.9527 31.3506 46.9527 31.6396 46.6637L40.2272 38.0761C40.5162 37.7871 40.9703 37.7871 41.2593 38.0761L43.6952 40.512H43.6539L46.9981 43.7737C47.2459 44.0214 47.6174 44.0214 47.8652 43.7737L51.2094 40.4707L57.2785 34.3603L60.086 37.1265C60.5401 37.5807 61.2833 37.2917 61.3658 36.6724L62.0264 31.5529L62.7696 25.8966C62.8522 25.4012 62.398 24.9883 61.9026 25.0709L56.2463 25.8553L50.4249 26.6398C50.0946 26.6811 49.9708 27.0939 50.1772 27.3416L53.4388 30.6446Z" fill="white"/>
<path d="M30.2778 63.5912H35.1909C35.5212 63.5912 35.8102 63.3022 35.8102 62.9719L35.7689 55.5816C35.7689 55.2514 35.4799 54.9623 35.1496 54.9623H30.2365C29.9062 54.9623 29.6172 55.2514 29.6172 55.5816L29.6585 62.9719C29.6585 63.3435 29.9062 63.5912 30.2778 63.5912ZM57.0727 63.5086H61.9858C62.3161 63.5086 62.6051 63.2196 62.6051 62.8894L62.5225 43.6086C62.5225 43.2783 62.2335 42.9893 61.9032 42.9893H56.9901C56.6599 42.9893 56.3708 43.2783 56.3708 43.6086L56.4534 62.8894C56.4121 63.2609 56.7011 63.5086 57.0727 63.5086ZM48.4025 63.5499H53.3156C53.6459 63.5499 53.9349 63.2609 53.9349 62.9306L53.8937 51.7833C53.8937 51.453 53.6046 51.164 53.2744 51.164H48.3613C48.031 51.164 47.742 51.453 47.742 51.7833L47.7833 62.9306C47.7833 63.2609 48.0723 63.5499 48.4025 63.5499ZM39.4021 63.5912H44.3152C44.6455 63.5912 44.9345 63.3022 44.9345 62.9719L44.8932 47.6133C44.8932 47.2831 44.6042 46.994 44.2739 46.994H39.3608C39.0305 46.994 38.7415 47.2831 38.7415 47.6133L38.7828 62.9719C38.7828 63.3022 39.0718 63.5912 39.4021 63.5912Z" fill="white"/>
</g>
<defs>
<clipPath id="clip0_1155_1850">
<rect width="90.5" height="90.5" fill="white" transform="translate(0.75 0.75)"/>
</clipPath>
</defs>
</svg>
