<svg width="10" height="12" viewBox="0 0 10 12" fill="none" xmlns="http://www.w3.org/2000/svg">
<path d="M8.67826 4.35385V3.81538C8.67826 1.70769 6.97934 0 4.88248 0C2.78561 0 1.08669 1.70769 1.08669 3.81538V4.35385C0.489775 4.35385 0 4.84615 0 5.44615V10.9077C0 11.5077 0.489775 12 1.08669 12H8.67826C9.12212 12 9.52007 11.7231 9.67312 11.3231C9.71904 11.2 9.74965 11.0462 9.74965 10.9077V5.44615C9.76496 4.84615 9.27518 4.35385 8.67826 4.35385ZM3.24478 3.81538C3.24478 2.90769 3.97945 2.18462 4.86717 2.18462C5.7702 2.18462 6.48956 2.92308 6.48956 3.81538V4.35385H3.22947V3.81538H3.24478ZM5.41817 8.55385V9.26154C5.41817 9.56923 5.17328 9.8 4.88248 9.8C4.57637 9.8 4.34678 9.55385 4.34678 9.26154V8.55385C4.02537 8.36923 3.81109 8.03077 3.81109 7.63077C3.81109 7.03077 4.30087 6.53846 4.89779 6.53846C5.4947 6.53846 5.98448 7.03077 5.98448 7.63077C5.95387 8.03077 5.73959 8.35385 5.41817 8.55385ZM6.61201 11.8154C6.76506 11.8154 6.91812 11.8 7.07117 11.7846C6.91812 11.8 6.76506 11.8154 6.61201 11.8154Z" fill="#A7A5A6"/>
</svg>
